<?xml version="1.0" encoding="utf-8"?>
<!-- Generator: Adobe Illustrator 19.2.1, SVG Export Plug-In . SVG Version: 6.00 Build 0)  -->
<svg version="1.1" id="Layer_1" xmlns="http://www.w3.org/2000/svg" xmlns:xlink="http://www.w3.org/1999/xlink" x="0px" y="0px"
	 viewBox="0 0 70 68" style="enable-background:new 0 0 70 68;" xml:space="preserve">
<style type="text/css">
	.st0{clip-path:url(#SVGID_2_);fill:#EC1C24;}
	.st1{clip-path:url(#SVGID_2_);}
	.st2{clip-path:url(#SVGID_4_);fill:#EC1C24;}
</style>
<title>Untitled-2</title>
<g id="Page-1_1_">
	<g>
		<defs>
			<rect id="SVGID_1_" width="70" height="68"/>
		</defs>
		<clipPath id="SVGID_2_">
			<use xlink:href="#SVGID_1_"  style="overflow:visible;"/>
		</clipPath>
		<polygon class="st0" points="46.3,44 45,44 45,40.4 45.1,40.4 		"/>
		<g class="st1">
			<defs>
				<rect id="SVGID_3_" width="70" height="68"/>
			</defs>
			<clipPath id="SVGID_4_">
				<use xlink:href="#SVGID_3_"  style="overflow:visible;"/>
			</clipPath>
			<path class="st2" d="M45.4,37.7c0,0.1-0.1,0.2-0.1,0.3c-0.9,1.9-1.9,3.8-2.8,5.7c-0.1,0.3-0.3,0.3-0.6,0.3h-2.3
				c1.2-2.5,2.5-4.9,3.7-7.3L45.4,37.7z"/>
			<path class="st2" d="M40,48.1H28.3c0-0.4,0-0.7,0.1-1.1H40C39.9,47.4,39.9,47.7,40,48.1"/>
			<path class="st2" d="M23.7,41.4v6.4h-2.5C22,45.6,22.8,43.4,23.7,41.4L23.7,41.4z"/>
			<path class="st2" d="M69.7,0v9.9V0z"/>
			<rect class="st2" width="70" height="10.2"/>
			<rect y="57.8" class="st2" width="70" height="10.2"/>
			<rect x="61.5" class="st2" width="8.5" height="68"/>
			<path class="st2" d="M69.4,8c-0.5-2.4-1.9-4.5-3.8-5.8C64,1,62.3,0.3,60.4,0.2c-0.2,0-0.4-0.1-0.6-0.2H9.4C9.3,0.1,9.1,0.1,9,0.2
				C6.7,0.4,4.4,1.6,2.8,3.3C1.3,4.9,0.3,6.9,0.2,9.1C0.1,9.4,0.1,9.7,0,10v46.5c0.1,0.7,0.2,1.4,0.3,2c0.3,1.9,1,3.6,2.3,5.1
				C4.2,65.5,6.5,66.7,9,67l0.8,0.2h49.7l1.5-0.3c1.3-0.3,2.6-0.7,3.7-1.4c2.7-1.6,4.5-4.5,4.9-7.6c0-0.2,0.1-0.3,0.2-0.5V9.9
				C69.5,9.3,69.4,8.6,69.4,8 M26.5,16.9c1.7-2.1,4.2-3.3,6.9-3.5c2.4-0.2,4.7,0.6,6.6,2c2,1.5,3.2,3.8,3.2,6.4
				c0,1.6-0.5,3.1-1.5,4.4c-1.6,2.5-5.1,3.9-8,3.8c-1.9-0.1-3.7-0.6-5.2-1.6c-2-1.3-3.2-3.3-3.7-5.6C24.4,20.7,25.1,18.5,26.5,16.9
				 M14.6,53.2c-0.3,0-0.5-0.1-0.7-0.3l-3.8-5.1c-0.1-0.1-0.1-0.2-0.2-0.3h4.9c0.3,0,0.4-0.2,0.5-0.3c1.8-4.8,3.6-9.6,5.4-14.4
				c0.1-0.3,0.3-0.4,0.5-0.4c2.1-0.5,4.2-0.9,6.3-1.4c0.1,0,0.1-0.1,0.2-0.1c0.3,0,0.5,0.2,0.5,0.4c0.5,1.6,1.6,3,3.1,3.9
				c1.5,0.9,3.3,0.9,4.9,0.1c1.6-0.8,2.8-2.2,3.5-3.9c0.3-0.7,0.3-0.7,1-0.5l7.3,1.2c0.2,0,0.3,0.2,0.4,0.4c0.7,2.6,1.5,5.3,2.1,7.9
				c0.6,2.3,1.2,4.7,1.8,6.9v0.1c0,0.2,0.3,0.3,0.4,0.3h3.2c0.2,0,0.3,0.1,0.5,0.3c1.2,1.6,2.3,3.3,3.4,4.9c0.1,0.1,0.1,0.2,0.3,0.4
				l-0.4-0.1H14.6z"/>
		</g>
	</g>
</g>
</svg>
